<svg xmlns="http://www.w3.org/2000/svg" version="1.1" xmlns:xlink="http://www.w3.org/1999/xlink" xmlns:svgjs="http://svgjs.dev/svgjs" width="128" height="128" viewBox="0 0 128 128"><g transform="matrix(0.8046875,0,0,0.8046875,12.312306586257094,3.1533937499999922)"><svg viewBox="0 0 80 95" data-background-color="#ffffff" preserveAspectRatio="xMidYMid meet" height="152" width="128" xmlns="http://www.w3.org/2000/svg" xmlns:xlink="http://www.w3.org/1999/xlink"><g id="tight-bounds" transform="matrix(1,0,0,1,0.1457812922274968,-0.24049999999999727)"><svg viewBox="0 0 79.708437415545 95.481" height="95.481" width="79.708437415545"><g><svg viewBox="0 0 79.708437415545 95.481" height="95.481" width="79.708437415545"><g><svg viewBox="0 0 79.708437415545 95.481" height="95.481" width="79.708437415545"><g id="textblocktransform"><svg viewBox="0 0 79.708437415545 95.481" height="95.481" width="79.708437415545" id="textblock"><g><svg viewBox="0 0 79.708437415545 95.481" height="95.481" width="79.708437415545"><g><svg viewBox="0 0 79.708437415545 95.481" height="95.481" width="79.708437415545"><g><svg xmlns="http://www.w3.org/2000/svg" xmlns:xlink="http://www.w3.org/1999/xlink" version="1.1" x="0" y="0" viewBox="14.703211243778917 10.099567125623267 66.38959533635727 79.52664934659084" enable-background="new 0 0 100 100" xml:space="preserve" height="95.481" width="79.708437415545" class="icon-icon-0" data-fill-palette-color="accent" id="icon-0"><path d="M78.818 16.776c-1.501-4.175-5.311-6.641-9.713-6.676-5.136-0.041-8.937 2.834-11.508 7.137-4.064 6.807-6.26 15.722-4.545 23.956C48.39 35.271 45.57 29.766 39.021 25.73c-5.712-3.52-16.655-8.084-22.064-1.742-3.833 4.496-1.965 11.581-0.325 16.546 2.183 6.612 5.546 12.718 9.523 18.409 8.074 11.556 18.859 21.265 30.249 29.464 0.521 0.375 1.175 0.587 1.845 0.686 1.249 0.59 3.656 0.813 4.188 0.024 7.159-10.618 11.478-22.959 15.002-35.188C80.759 42.403 82.99 28.387 78.818 16.776zM71.156 57.308c-3.154 10.071-6.777 20.074-12.436 29.02-8.823-6.564-17.029-14.018-23.975-22.556-3.777-4.643-7.072-9.668-9.767-15.011-2.701-5.351-5.175-11.534-5.109-17.6 0.041-3.782 2.139-8.597 6.585-8.168 3.452 0.333 6.97 2.464 9.813 4.318 9.48 6.178 12.305 16.003 18.941 24.899 0.7 0.938 5.546 1.52 4.968 0.033-3.604-9.259-2.245-20.525 0.683-30.208 0.705-2.326 1.855-4.419 3.366-6.312 1.304-1.638 4.377-4.644 6.677-3.203 3.575 2.237 4.097 8.108 4.542 11.823C76.785 35.452 74.466 46.744 71.156 57.308z" fill="#ff908b" data-fill-palette-color="accent"></path></svg></g></svg></g></svg></g></svg></g></svg></g></svg></g><defs></defs></svg><rect width="79.708437415545" height="95.481" fill="none" stroke="none" visibility="hidden"></rect></g></svg></g></svg>