<svg xmlns="http://www.w3.org/2000/svg" version="1.1" xmlns:xlink="http://www.w3.org/1999/xlink" xmlns:svgjs="http://svgjs.dev/svgjs" width="1000" height="255" viewBox="0 0 1000 255"><g transform="matrix(1,0,0,1,-0.6056293114580171,-0.21537682112058576)"><svg viewBox="0 0 396 101" data-background-color="#ffffff" preserveAspectRatio="xMidYMid meet" height="255" width="1000" xmlns="http://www.w3.org/2000/svg" xmlns:xlink="http://www.w3.org/1999/xlink"><g id="tight-bounds" transform="matrix(1,0,0,1,0.23982920733737956,0.08530611346344585)"><svg viewBox="0 0 395.52 100.82904618774786" height="100.82904618774786" width="395.52"><g><svg viewBox="0 0 561.7336005993853 143.20151486661948" height="100.82904618774786" width="395.52"><g transform="matrix(1,0,0,1,0,32.27398983090164)"><svg viewBox="0 0 395.5199999999999 78.6535352048162" height="78.6535352048162" width="395.5199999999999"><g id="textblocktransform"><svg viewBox="0 0 395.5199999999999 78.6535352048162" height="78.6535352048162" width="395.5199999999999" id="textblock"><g><rect width="98.87999999999998" height="4.395308374958298" y="67.2514965502481" fill="#ffffff" data-fill-palette-color="tertiary"></rect><rect width="98.87999999999998" height="4.395308374958298" y="67.2514965502481" x="296.63999999999993" fill="#ffffff" data-fill-palette-color="tertiary"></rect></g><g><svg viewBox="0 0 395.5199999999999 48.73872340425532" height="48.73872340425532" width="395.5199999999999"><g transform="matrix(1,0,0,1,0,0)"><svg width="395.5199999999999" viewBox="-0.45000001788139343 -29.600000381469727 394.75 48.650001525878906" height="48.73872340425532" data-palette-color="#ff908b"><path d="M10.6-4.05L10.6-4.05Q6.1 4.4 2.1 4.4L2.1 4.4Q-0.45 4.4-0.45 1.8L-0.45 1.8Q-0.45 0.25 0.75-1.65L0.75-1.65Q2.8-4.85 7.13-9.53 11.45-14.2 14.45-16.95L14.45-16.95 16.35-23.4Q13.85-21.05 9.85-20.65L9.85-20.65Q9.35-20.6 9.33-20.95 9.3-21.3 9.75-21.4L9.75-21.4 9.95-21.45Q12.1-21.65 14.38-23.7 16.65-25.75 17.8-28.4L17.8-28.4Q18-29.05 19.55-29.03 21.1-29 21.05-28.4L21.05-28.4 17.6-19.85Q24.4-25.6 27.35-25.75L27.35-25.75Q27.7-25.75 28.05-25.75L28.05-25.75Q32-25.75 33.5-23.15L33.5-23.15Q34.8-20.95 34.8-18L34.8-18Q34.8-13.6 32.1-5.4L32.1-5.4Q31.65-3.95 31.73-3.93 31.8-3.9 32-4.23 32.2-4.55 32.63-5.2 33.05-5.85 34.65-8.5L34.65-8.5Q40.4-18.15 46.35-24.6L46.35-24.6Q48.3-26.65 50.25-26.65L50.25-26.65Q51.4-26.65 52-25.85 52.6-25.05 52.6-24.1 52.6-23.15 52.18-21.45 51.75-19.75 49.6-14.35L49.6-14.35Q46.95-7.75 46.95-3.55L46.95-3.55Q46.95-0.3 48.75-0.3L48.75-0.3Q50.05-0.3 52.2-1.95L52.2-1.95Q55.5-4.7 57.5-7.4L57.5-7.4Q57.75-7.75 57.98-7.55 58.2-7.35 58.2-7.23 58.2-7.1 58.1-7L58.1-7Q57.15-5.5 55.1-3.4L55.1-3.4Q51.75 0.15 49.7 0.8L49.7 0.8Q48.7 1.15 47.75 1.15L47.75 1.15Q44.45 1.1 44.45-3.6L44.45-3.6Q44.45-6.05 45.05-8.35 45.65-10.65 46.03-11.9 46.4-13.15 47-14.83 47.6-16.5 48-17.4L48-17.4Q49.3-20.65 49.6-21.45 49.9-22.25 49.9-22.83 49.9-23.4 49.6-23.63 49.3-23.85 48.8-23.85 48.3-23.85 47.25-22.95L47.25-22.95Q43.4-19.65 38.58-12.55 33.75-5.45 31.8-1.4L31.8-1.4Q31.4-0.55 31-0.55 30.6-0.55 30.15-1.28 29.7-2 29.7-2.33 29.7-2.65 29.75-2.75L29.75-2.75Q31.05-6.05 31.63-9.8 32.2-13.55 32.2-15.95L32.2-15.95Q32.2-24.4 28.55-24.4L28.55-24.4Q25.15-24.4 16.2-16.2L16.2-16.2Q15.75-14.9 14.25-11.5L14.25-11.5Q12.2-7.05 10.6-4.05ZM2.25 2.7L2.25 2.7Q5.35 2.7 9.85-5.95L9.85-5.95Q12.35-10.75 13.45-13.75L13.45-13.75Q10.8-11.25 7.6-7.63 4.4-4 3.05-2.2L3.05-2.2Q1.3 0.15 1.3 1.43 1.3 2.7 2.25 2.7ZM68.35-14.55L68.35-14.55Q71.05-14.55 71.05-11.95L71.05-11.95Q71.05-10.6 70.3-9.75L70.3-9.75Q69.05-7.9 66.25-6.53 63.45-5.15 61.5-5L61.5-5Q60.8-4.95 60.75-5.4L60.75-5.4Q60.7-5.6 60.87-5.65 61.05-5.7 61.15-5.7L61.15-5.7Q62.3-5.8 64.1-6.8L64.1-6.8Q67.45-8.6 69-10.5L69-10.5Q69.65-11.4 69.65-12.23 69.65-13.05 68.85-13.05L68.85-13.05Q68.2-13.05 67.1-12.5L67.1-12.5Q64.75-11.4 62.15-8.68 59.55-5.95 58.75-3.35L58.75-3.35Q58.5-2.55 58.5-1.78 58.5-1 59.15-0.3 59.8 0.4 61.15 0.4L61.15 0.4Q62.65 0.4 64.6-0.4L64.6-0.4Q70.25-2.7 73.3-7.35L73.3-7.35Q73.6-7.75 73.85-7.5L73.85-7.5Q74.05-7.4 74.05-7.25 74.05-7.1 73.9-6.9L73.9-6.9Q72.4-4.4 70.1-2.45L70.1-2.45Q65.65 1.35 61.45 1.35L61.45 1.35Q57.85 1.35 56.4-0.8L56.4-0.8Q55.85-1.65 55.85-2.85 55.85-4.05 56.5-5.7L56.5-5.7Q57.75-8.55 61.85-11.55 65.95-14.55 68.35-14.55ZM96.25-7Q95.5-5.65 93.55-3.55 91.59-1.45 90.05-0.3L90.05-0.3Q88.05 1.15 85.7 1.15L85.7 1.15Q85.25 1.15 84.52 0.73 83.8 0.3 83.55-0.5 83.3-1.3 83.3-2.05L83.3-2.05Q83.3-4.65 84.3-7.2L84.3-7.2Q84.15-7.1 82.92-5.08 81.7-3.05 79.92-1.25 78.15 0.55 76.34 0.55L76.34 0.55Q75.5 0.55 74.4 0.1L74.4 0.1Q72.4-0.8 72.4-3.2L72.4-3.2Q72.4-6.15 74.42-9.28 76.45-12.4 77-12.6L77-12.6Q77.75-12.8 78.42-12.8 79.09-12.8 79.8-12.53 80.5-12.25 79.59-11.6L79.59-11.6Q76.15-8.45 74.7-4.6L74.7-4.6Q74.15-3.1 74.15-2.08 74.15-1.05 74.67-0.75 75.2-0.45 75.7-0.45L75.7-0.45Q76.9-0.45 78.97-2.13 81.05-3.8 84.7-9.1L84.7-9.1Q85.2-9.85 86.45-12.03 87.7-14.2 87.95-14.6L87.95-14.6Q88.75-14.6 89.82-14.23 90.9-13.85 90.55-13.25L90.55-13.25Q88.15-9.25 87.17-7.35 86.2-5.45 85.84-2.9L85.84-2.9Q85.8-2.45 85.8-1.75 85.8-1.05 86.2-0.6L86.2-0.6Q86.95 0.2 88.27-0.53 89.59-1.25 91.9-3.33 94.2-5.4 95.59-7.4L95.59-7.4Q95.8-7.65 96.07-7.53 96.34-7.4 96.34-7.28 96.34-7.15 96.25-7L96.25-7ZM118.49-11L118.49-11 118.74-12Q118.74-13 117.99-13L117.99-13Q115.94-13 112.39-9.8 108.84-6.6 107.89-3.35L107.89-3.35Q107.64-2.5 107.64-1.83 107.64-1.15 107.94-0.7L107.94-0.7Q108.54 0.2 109.79 0.2 111.04 0.2 112.49-0.15L112.49-0.15Q115.69-1.05 117.82-2.73 119.94-4.4 122.29-7.4L122.29-7.4Q122.49-7.65 122.77-7.55 123.04-7.45 123.04-7.28 123.04-7.1 122.89-6.75L122.89-6.75Q120.49-3.5 117.87-1.48 115.24 0.55 111.79 1.15L111.79 1.15Q110.79 1.3 109.94 1.3L109.94 1.3Q107.49 1.3 106.22 0.1 104.94-1.1 104.94-2.55 104.94-4 105.64-5.7L105.64-5.7Q106.89-8.55 110.99-11.55 115.09-14.55 117.49-14.55L117.49-14.55Q118.09-14.55 118.64-14.4L118.64-14.4Q120.04-13.9 120.04-12.8L120.04-12.8Q120.04-12.05 119.49-11.1 118.94-10.15 118.67-10.43 118.39-10.7 118.49-11ZM124.19 0.55L124.19 0.55Q123.39 0.55 122.46 0.08 121.54-0.4 120.89-1.28 120.24-2.15 120.24-3.15 120.24-4.15 120.69-5.05L120.69-5.05Q121.69-7.15 123.91-9.13 126.14-11.1 128.54-12.5 130.94-13.9 132.34-14.25 133.74-14.6 135.06-14.6 136.39-14.6 137.34-13.93 138.29-13.25 138.29-12.5L138.29-12.5Q138.29-12.25 138.24-12.2 138.19-12.15 137.99-12.25L137.99-12.25Q137.39-13.2 135.51-13.2 133.64-13.2 131.26-11.98 128.89-10.75 126.79-8.9L126.79-8.9Q125.04-7.25 123.71-5.18 122.39-3.1 122.39-2.15L122.39-2.15Q122.39-0.3 123.44-0.3 124.49-0.3 126.64-2L126.64-2Q130.19-5 131.49-6.4L131.49-6.4Q136.09-11.35 136.44-11.35L136.44-11.35Q137.04-11.35 137.89-11 138.74-10.65 138.44-10.15L138.44-10.15Q135.89-6.55 135.44-2.9L135.44-2.9Q135.39-2.45 135.39-1.75 135.39-1.05 135.79-0.6L135.79-0.6Q136.54 0.2 137.84-0.5 139.14-1.2 141.46-3.3 143.79-5.4 145.19-7.4L145.19-7.4Q145.39-7.65 145.64-7.53 145.89-7.4 145.89-7.3L145.89-7.3Q145.89-6.55 143.51-4.03 141.14-1.5 139.89-0.6L139.89-0.6Q137.54 1.15 135.54 1.15L135.54 1.15Q133.64 1.15 132.99-0.75L132.99-0.75Q132.84-1.35 132.84-2.1L132.84-2.1Q132.84-4.35 133.79-6.85L133.79-6.85Q133.59-6.75 131.94-4.85 130.29-2.95 128.11-1.2 125.94 0.55 124.19 0.55ZM158.44-14.2L158.44-14.2Q159.59-14.2 159.59-12.98 159.59-11.75 158.44-9.6 157.29-7.45 156.74-6.1L156.74-6.1Q155.79-3.8 155.79-2.43 155.79-1.05 156.19-0.6L156.19-0.6Q156.94 0.2 158.24-0.53 159.54-1.25 161.86-3.33 164.19-5.4 165.59-7.4L165.59-7.4Q165.79-7.65 166.06-7.53 166.34-7.4 166.34-7.28 166.34-7.15 166.24-7L166.24-7Q165.49-5.65 163.54-3.55 161.59-1.45 159.79-0.18 157.99 1.1 156.24 1.1L156.24 1.1Q154.54 1.05 153.84 0.33 153.14-0.4 153.14-1.5 153.14-2.6 153.34-3.63 153.54-4.65 154.09-6L154.09-6Q154.99-8.15 155.66-9.35 156.34-10.55 156.34-10.93 156.34-11.3 155.94-11.3L155.94-11.3Q155.14-11.3 152.89-9.35L152.89-9.35Q151.34-7.9 148.31-3.88 145.29 0.15 144.89 0.4L144.89 0.4Q143.09 1.3 142.64 1.3 142.19 1.3 142.19 1.15 142.19 1 142.29 0.73 142.39 0.45 143.26-2 144.14-4.45 145.16-7.38 146.19-10.3 146.41-10.9 146.64-11.5 146.71-11.93 146.79-12.35 146.89-12.65 146.99-12.95 147.26-13.33 147.54-13.7 147.99-13.73 148.44-13.75 149.14-13.63 149.84-13.5 149.84-13L149.84-13Q149.84-12.65 149.29-11.48 148.74-10.3 146.14-3.4L146.14-3.4Q147.94-5.6 150.69-8.47 153.44-11.35 155.34-12.85L155.34-12.85Q157.24-14.2 158.44-14.2ZM172.33-13.95L172.98-14Q176.83-14.35 177.66-14.35 178.48-14.35 178.48-14.1L178.48-14.1Q178.48-13.8 177.31-13.48 176.13-13.15 171.58-12.65L171.58-12.65Q171.33-12.2 170.98-11.6L170.98-11.6Q170.23-10.4 170.18-10.15L170.18-10.15Q167.33-4.45 167.18-2.9L167.18-2.9Q167.13-2.45 167.13-1.75 167.13-1.05 167.53-0.6L167.53-0.6Q168.23 0.2 169.53-0.5 170.83-1.2 173.16-3.3 175.48-5.4 176.93-7.4L176.93-7.4Q177.13-7.65 177.43-7.5L177.43-7.5Q178.18-7.15 174.83-3.55L174.83-3.55Q171.63-0.1 169.48 0.7L169.48 0.7Q168.23 1.15 167.38 1.15L167.38 1.15Q165.38 1.15 164.73-0.75L164.73-0.75Q164.63-1.1 164.63-1.6L164.63-1.6Q164.63-3.35 166.23-6.9L166.23-6.9Q165.98-6.35 164.28-4.4L164.28-4.4Q163.83-3.9 163.58-4.4L163.58-4.4Q163.53-4.5 163.53-4.67 163.53-4.85 163.73-5.1L163.73-5.1Q166.18-8.15 167.58-10.25L167.58-10.25Q167.58-10.3 168.68-12.35L168.68-12.35Q168.18-12.25 167.66-12.25 167.13-12.25 166.88-12.58 166.63-12.9 166.83-13.35L166.83-13.35Q167.18-14.15 169.48-14.25L169.48-14.25Q169.53-14.35 169.68-14.35L169.68-14.35 172.18-19Q172.38-19.4 172.63-19.83 172.88-20.25 173.01-20.48 173.13-20.7 173.28-20.95 173.43-21.2 173.53-21.3 173.63-21.4 173.73-21.5L173.73-21.5Q173.93-21.8 174.91-21.8 175.88-21.8 176.23-21.25L176.23-21.25Q176.38-21.05 176.38-20.58 176.38-20.1 176.03-19.53 175.68-18.95 175.28-18.7 174.88-18.45 174.73-18.15L174.73-18.15 172.33-13.95ZM181.08-13.85L181.08-13.85Q182.33-13.85 182.58-13.05L182.58-13.05Q182.68-12.6 182.46-12.18 182.23-11.75 182.13-11.5 182.03-11.25 181.98-11.1L181.98-11.1Q181.73-10.6 181.48-10.15L181.48-10.15Q178.63-4.45 178.48-2.9L178.48-2.9Q178.43-2.45 178.43-1.75 178.43-1.05 178.83-0.6L178.83-0.6Q179.53 0.2 180.83-0.5 182.13-1.2 184.46-3.3 186.78-5.4 188.23-7.4L188.23-7.4Q188.43-7.65 188.68-7.53 188.93-7.4 188.93-7.28 188.93-7.15 188.83-7L188.83-7Q188.08-5.65 186.13-3.55L186.13-3.55Q182.93-0.1 180.78 0.7L180.78 0.7Q179.53 1.15 178.68 1.15L178.68 1.15Q176.68 1.15 176.03-0.75L176.03-0.75Q175.93-1.1 175.93-1.6L175.93-1.6Q175.93-3.35 177.53-6.9L177.53-6.9Q177.28-6.35 175.58-4.4L175.58-4.4Q175.13-3.9 174.88-4.4L174.88-4.4Q174.83-4.5 174.83-4.67 174.83-4.85 175.03-5.1L175.03-5.1Q177.48-8.15 178.88-10.25L178.88-10.25Q178.78-10.5 178.98-10.9L178.98-10.9Q179.98-13.7 180.73-13.85L180.73-13.85Q180.88-13.85 181.08-13.85ZM185.03-20.5L185.03-20.5 184.63-18.9Q184.63-18.45 183.98-17.45 183.33-16.45 182.98-16.45L182.98-16.45Q180.83-16.45 180.83-17.5L180.83-17.5Q180.83-17.7 182.98-19.35L182.98-19.35 183.83-20Q184.63-20.7 184.83-20.7 185.03-20.7 185.03-20.5ZM201.48-14.2L201.48-14.2Q202.63-14.2 202.63-12.98 202.63-11.75 201.48-9.6 200.33-7.45 199.78-6.1L199.78-6.1Q198.83-3.8 198.83-2.43 198.83-1.05 199.23-0.6L199.23-0.6Q199.98 0.2 201.28-0.53 202.58-1.25 204.9-3.33 207.23-5.4 208.63-7.4L208.63-7.4Q208.83-7.65 209.1-7.53 209.38-7.4 209.38-7.28 209.38-7.15 209.28-7L209.28-7Q208.53-5.65 206.58-3.55 204.63-1.45 202.83-0.18 201.03 1.1 199.28 1.1L199.28 1.1Q197.58 1.05 196.88 0.33 196.18-0.4 196.18-1.5 196.18-2.6 196.38-3.63 196.58-4.65 197.13-6L197.13-6Q198.03-8.15 198.7-9.35 199.38-10.55 199.38-10.93 199.38-11.3 198.98-11.3L198.98-11.3Q198.18-11.3 195.93-9.35L195.93-9.35Q194.38-7.9 191.35-3.88 188.33 0.15 187.93 0.4L187.93 0.4Q186.13 1.3 185.68 1.3 185.23 1.3 185.23 1.15 185.23 1 185.33 0.73 185.43 0.45 186.3-2 187.18-4.45 188.2-7.38 189.23-10.3 189.45-10.9 189.68-11.5 189.75-11.93 189.83-12.35 189.93-12.65 190.03-12.95 190.3-13.33 190.58-13.7 191.03-13.73 191.48-13.75 192.18-13.63 192.88-13.5 192.88-13L192.88-13Q192.88-12.65 192.33-11.48 191.78-10.3 189.18-3.4L189.18-3.4Q190.98-5.6 193.73-8.47 196.48-11.35 198.38-12.85L198.38-12.85Q200.28-14.2 201.48-14.2ZM225.18-29.25L225.18-29.25Q226.08-29.6 226.73-29.6L226.73-29.6Q228.93-29.6 229.63-28.4L229.63-28.4Q230.03-27.8 230.03-27.35L230.03-27.35Q230.03-23.95 224.33-18.8L224.33-18.8Q219.28-14.35 215.03-11.15L215.03-11.15Q213.63-8 212.13-3.4L212.13-3.4Q213.93-5.6 216.68-8.5L216.68-8.5Q222.23-14.25 224.43-14.25L224.43-14.25Q225.53-14.25 225.58-13.15L225.58-13.15Q225.68-12 225.1-10.95 224.53-9.9 224.03-9L224.03-9Q221.68-5.1 221.68-2.05L221.68-2.05Q221.68-1.05 222.08-0.6L222.08-0.6Q222.78 0.2 224.08-0.5 225.38-1.2 227.7-3.3 230.03-5.4 231.48-7.4L231.48-7.4Q231.73-7.65 231.95-7.53 232.18-7.4 232.18-7.28 232.18-7.15 232.08-7L232.08-7Q231.33-5.65 229.38-3.58 227.43-1.5 226.23-0.6L226.23-0.6Q223.93 1.15 221.83 1.15L221.83 1.15Q219.93 1.15 219.28-0.75L219.28-0.75Q219.13-1.2 219.13-1.83 219.13-2.45 219.23-3.15L219.23-3.15Q219.48-5.25 221.88-9.7L221.88-9.7Q222.38-10.6 222.38-10.98 222.38-11.35 221.98-11.35L221.98-11.35Q221.18-11.35 218.88-9.35L218.88-9.35Q217.33-7.9 214.3-3.88 211.28 0.15 210.88 0.4L210.88 0.4Q209.08 1.3 208.65 1.3 208.23 1.3 208.18 1.18 208.13 1.05 208.23 0.85 208.33 0.65 209.03-1.35L209.03-1.35Q211.38-8 212.23-10.15L212.23-10.15Q210.58-8.05 208.13-5.4L208.13-5.4Q207.73-5 207.73-5.58 207.73-6.15 208.18-6.75 208.63-7.35 210.05-9.08 211.48-10.8 212.08-11.65L212.08-11.65Q211.63-11.9 211.6-12.35 211.58-12.8 211.9-12.98 212.23-13.15 212.98-12.85L212.98-12.85Q213.48-13.55 213.88-14.4L213.88-14.4Q219.83-27.2 225.18-29.25ZM227.98-25.5L227.98-25.5Q228.63-26.7 228.63-27.53 228.63-28.35 227.9-28.35 227.18-28.35 225.98-27.45L225.98-27.45Q220.48-23.25 216.03-13.4L216.03-13.4Q219.28-15.5 222.83-19 226.38-22.5 227.98-25.5ZM241.17-5.5L241.17-5.5Q242.07-7.35 242.07-8.35 242.07-9.35 241.85-9.93 241.62-10.5 242.05-10.9 242.47-11.3 243.12-11.2L243.12-11.2Q244.12-10.95 244.12-8.95 244.12-6.95 241.77-3.7L241.77-3.7Q241.82-2.35 243.17-2.35 244.52-2.35 247.27-5.25L247.27-5.25Q248.57-6.75 248.9-7.2 249.22-7.65 249.47-7.53 249.72-7.4 249.72-7.3L249.72-7.3Q249.72-6.8 247.92-4.7L247.92-4.7Q245.07-1.2 242.87-1.2L242.87-1.2Q241.42-1.2 240.82-2.45L240.82-2.45Q239.82-1.4 238.87-0.5L238.87-0.5Q236.92 1.15 234.52 1.15L234.52 1.15Q233.17 1.15 232.27 0.5L232.27 0.5Q230.52-0.55 230.52-3.25L230.52-3.25Q230.52-6.2 232.52-9.25L232.52-9.25Q233.67-11.05 235.22-12.4L235.22-12.4Q237.67-14.55 239.87-14.55L239.87-14.55Q240.42-14.55 240.92-14.4L240.92-14.4Q242.42-13.9 242.42-12.5L242.42-12.5Q242.42-11.35 241.82-11.35L241.82-11.35Q241.57-11.45 241.57-12.1L241.57-12.1Q241.57-13 240.57-13L240.57-13Q238.82-13 236.07-9.8 233.32-6.6 232.77-3.35L232.77-3.35Q232.67-2.8 232.67-2.13 232.67-1.45 233.12-0.58 233.57 0.3 234.8 0.3 236.02 0.3 237.47-0.8 238.92-1.9 240.07-3.6L240.07-3.6 239.92-3.9Q239.72-4.7 240.12-5.2 240.52-5.7 241.17-5.5ZM257.97 19.05L257.97 19.05Q257.57 19.05 256.97 18.9L256.97 18.9Q254.42 18.25 254.42 16.23 254.42 14.2 257.04 11.15 259.67 8.1 268.12 2.5L268.12 2.5Q271.72-4.85 273.12-9.15L273.12-9.15Q270.32-5.75 269.12-4.45L269.12-4.45Q264.62 0.55 261.87 0.55L261.87 0.55Q261.07 0.55 260.14 0.08 259.22-0.4 258.57-1.28 257.92-2.15 257.92-3.15L257.92-3.15Q257.92-5.8 261.62-9.1L261.62-9.1Q263.82-11.1 266.22-12.5 268.62-13.9 270.02-14.25 271.42-14.6 272.72-14.6 274.02-14.6 275.02-13.9 276.02-13.2 276.02-12.5L276.02-12.5Q276.02-12.1 275.62-12.25L275.62-12.25Q275.07-13.2 273.19-13.2 271.32-13.2 268.94-11.98 266.57-10.75 264.67-9.08 262.77-7.4 261.44-5.28 260.12-3.15 260.12-2.15L260.12-2.15Q260.12-0.4 261.12-0.4L261.12-0.4Q262.52-0.4 265.42-2.7L265.42-2.7Q269.72-6.05 273.67-10.85L273.67-10.85Q274.32-11.8 276.37-10.8L276.37-10.8Q277.17-10.4 277.02-10.1L277.02-10.1Q276.37-8.65 274.64-5.08 272.92-1.5 272.07 0.3L272.07 0.3Q273.22-0.3 275.99-2.73 278.77-5.15 280.87-7.6L280.87-7.6Q281.97-8.9 281.97-8L281.97-8Q281.97-6.75 275.97-1.4L275.97-1.4Q272.52 1.7 271.07 2.5L271.07 2.5Q266.82 11.25 265.37 13.5L265.37 13.5Q261.62 19.05 257.97 19.05ZM267.17 4.4L267.17 4.4Q261.17 8.9 258.57 11.53 255.97 14.15 255.97 16.45L255.97 16.45Q255.97 17.15 256.42 17.45 256.87 17.75 257.37 17.75 257.87 17.75 258.82 17 259.77 16.25 260.44 15.53 261.12 14.8 261.62 14.18 262.12 13.55 262.74 12.58 263.37 11.6 263.72 11.05 264.07 10.5 264.69 9.33 265.32 8.15 265.54 7.73 265.77 7.3 266.39 6 267.02 4.7 267.17 4.4ZM290.47-5.5L290.47-5.5Q291.37-7.35 291.37-8.35 291.37-9.35 291.14-9.93 290.92-10.5 291.34-10.9 291.77-11.3 292.42-11.2L292.42-11.2Q293.42-10.95 293.42-8.95 293.42-6.95 291.07-3.7L291.07-3.7Q291.12-2.35 292.47-2.35 293.82-2.35 296.57-5.25L296.57-5.25Q297.87-6.75 298.19-7.2 298.52-7.65 298.77-7.53 299.02-7.4 299.02-7.3L299.02-7.3Q299.02-6.8 297.22-4.7L297.22-4.7Q294.37-1.2 292.17-1.2L292.17-1.2Q290.72-1.2 290.12-2.45L290.12-2.45Q289.12-1.4 288.17-0.5L288.17-0.5Q286.22 1.15 283.82 1.15L283.82 1.15Q282.47 1.15 281.57 0.5L281.57 0.5Q279.82-0.55 279.82-3.25L279.82-3.25Q279.82-6.2 281.82-9.25L281.82-9.25Q282.97-11.05 284.52-12.4L284.52-12.4Q286.97-14.55 289.17-14.55L289.17-14.55Q289.72-14.55 290.22-14.4L290.22-14.4Q291.72-13.9 291.72-12.5L291.72-12.5Q291.72-11.35 291.12-11.35L291.12-11.35Q290.87-11.45 290.87-12.1L290.87-12.1Q290.87-13 289.87-13L289.87-13Q288.12-13 285.37-9.8 282.62-6.6 282.07-3.35L282.07-3.35Q281.97-2.8 281.97-2.13 281.97-1.45 282.42-0.58 282.87 0.3 284.09 0.3 285.32 0.3 286.77-0.8 288.22-1.9 289.37-3.6L289.37-3.6 289.22-3.9Q289.02-4.7 289.42-5.2 289.82-5.7 290.47-5.5ZM321.16-7Q320.41-5.65 318.46-3.55 316.51-1.45 314.96-0.3L314.96-0.3Q312.96 1.15 310.61 1.15L310.61 1.15Q310.16 1.15 309.44 0.73 308.71 0.3 308.46-0.5 308.21-1.3 308.21-2.05L308.21-2.05Q308.21-4.65 309.21-7.2L309.21-7.2Q309.06-7.1 307.84-5.08 306.61-3.05 304.84-1.25 303.06 0.55 301.26 0.55L301.26 0.55Q300.41 0.55 299.31 0.1L299.31 0.1Q297.31-0.8 297.31-3.2L297.31-3.2Q297.31-6.15 299.34-9.28 301.36-12.4 301.91-12.6L301.91-12.6Q302.66-12.8 303.34-12.8 304.01-12.8 304.71-12.53 305.41-12.25 304.51-11.6L304.51-11.6Q301.06-8.45 299.61-4.6L299.61-4.6Q299.06-3.1 299.06-2.08 299.06-1.05 299.59-0.75 300.11-0.45 300.61-0.45L300.61-0.45Q301.81-0.45 303.89-2.13 305.96-3.8 309.61-9.1L309.61-9.1Q310.11-9.85 311.36-12.03 312.61-14.2 312.86-14.6L312.86-14.6Q313.66-14.6 314.74-14.23 315.81-13.85 315.46-13.25L315.46-13.25Q313.06-9.25 312.09-7.35 311.11-5.45 310.76-2.9L310.76-2.9Q310.71-2.45 310.71-1.75 310.71-1.05 311.11-0.6L311.11-0.6Q311.86 0.2 313.19-0.53 314.51-1.25 316.81-3.33 319.11-5.4 320.51-7.4L320.51-7.4Q320.71-7.65 320.99-7.53 321.26-7.4 321.26-7.28 321.26-7.15 321.16-7L321.16-7ZM326.51 1.25L326.51 1.25Q323.96 1.25 323.96-1.83 323.96-4.9 328.36-9.4L328.36-9.4Q328.71-9.75 328.86-9.95L328.86-9.95 329.21-10.45Q329.91-11.4 329.86-11.65L329.86-11.65 329.71-12.1Q329.51-12.7 328.06-12.98 326.61-13.25 325.71-13.25L325.71-13.25Q321.21-6.9 320.51-6 319.81-5.1 319.56-5.25 319.31-5.4 319.31-5.6 319.31-5.8 319.61-6.2L319.61-6.2Q322.31-9.5 324.26-13.25L324.26-13.25Q323.66-13.35 323.36-13.68 323.06-14 323.31-14.78 323.56-15.55 324.84-16.85 326.11-18.15 327.06-18.6 328.01-19.05 328.26-19.15 328.51-19.25 328.81-19.25L328.81-19.25Q329.41-19.25 328.41-17.45L328.41-17.45 326.46-14.35Q328.71-14.2 330.31-14.2L330.31-14.2 332.06-14.25Q332.91-14.25 333.31-14.03 333.71-13.8 333.51-13.25L333.51-13.25Q333.16-12.3 331.76-10.7L331.76-10.7Q328.76-7.2 327.26-3.25L327.26-3.25Q326.91-2.3 326.91-1.6L326.91-1.6Q326.91-0.15 327.96-0.15L327.96-0.15Q328.31-0.15 329.29-0.7 330.26-1.25 332.56-3.33 334.86-5.4 336.26-7.4L336.26-7.4Q336.46-7.65 336.74-7.53 337.01-7.4 337.01-7.28 337.01-7.15 336.91-7L336.91-7Q336.16-5.65 334.21-3.55 332.26-1.45 330.41-0.15L330.41-0.15Q328.61 1.25 326.51 1.25ZM342.21-13L342.21-13Q342.21-12.65 341.66-11.48 341.11-10.3 338.51-3.4L338.51-3.4Q340.31-5.6 343.06-8.5L343.06-8.5Q348.61-14.3 350.71-14.3L350.71-14.3Q351.16-14.3 351.58-14.05 352.01-13.8 352.01-12.93 352.01-12.05 351.46-10.98 350.91-9.9 350.21-8.35 349.51-6.8 349.26-6.4L349.26-6.4Q353.46-10.2 355.61-11.03 357.76-11.85 358.46-11.85 359.16-11.85 359.16-11.35L359.16-11.35Q359.16-11.05 358.41-9.9 357.66-8.75 356.76-6.5 355.86-4.25 355.76-3.35 355.66-2.45 355.66-1.75 355.66-1.05 356.06-0.6L356.06-0.6Q356.81 0.2 358.11-0.5 359.41-1.2 361.73-3.3 364.06-5.4 365.46-7.4L365.46-7.4Q365.66-7.65 365.93-7.53 366.21-7.4 366.21-7.28 366.21-7.15 366.11-7L366.11-7Q365.36-5.65 363.41-3.55L363.41-3.55Q360.21-0.1 358.06 0.7L358.06 0.7Q355.71 1.5 354.66 0.9 353.61 0.3 353.36-0.45 353.11-1.2 353.11-1.95L353.11-1.95Q353.11-4.3 354.03-6.65 354.96-9 355.51-9.85L355.51-9.85Q353.61-9.05 352.26-7.85L352.26-7.85Q350.21-6.05 348.96-4.7L348.96-4.7 347.96-3.6Q347.51-2.5 346.38-2.35 345.26-2.2 345.31-3.1L345.31-3.1Q345.41-4.05 347.16-7.35 348.91-10.65 348.91-11.03 348.91-11.4 348.51-11.4L348.51-11.4Q347.61-11.4 345.26-9.35L345.26-9.35Q343.71-7.9 340.68-3.88 337.66 0.15 337.26 0.4L337.26 0.4Q335.46 1.3 335.01 1.3 334.56 1.3 334.56 1.15 334.56 1 334.71 0.7 334.86 0.4 337.76-8L337.76-8Q336.66-6.3 335.76-5.4L335.76-5.4Q335.36-4.95 335.36-5.58 335.36-6.2 335.71-6.65L335.71-6.65Q337.96-9.6 339.01-11.65L339.01-11.65Q339.31-13.4 340.21-13.7L340.21-13.7Q340.76-13.9 341.48-13.7 342.21-13.5 342.21-13ZM376.41-14.55L376.41-14.55Q379.11-14.55 379.11-11.95L379.11-11.95Q379.11-10.6 378.36-9.75L378.36-9.75Q377.11-7.9 374.31-6.53 371.51-5.15 369.56-5L369.56-5Q368.86-4.95 368.81-5.4L368.81-5.4Q368.76-5.6 368.93-5.65 369.11-5.7 369.21-5.7L369.21-5.7Q370.36-5.8 372.16-6.8L372.16-6.8Q375.51-8.6 377.06-10.5L377.06-10.5Q377.71-11.4 377.71-12.23 377.71-13.05 376.91-13.05L376.91-13.05Q376.26-13.05 375.16-12.5L375.16-12.5Q372.81-11.4 370.21-8.68 367.61-5.95 366.81-3.35L366.81-3.35Q366.56-2.55 366.56-1.78 366.56-1 367.21-0.3 367.86 0.4 369.21 0.4L369.21 0.4Q370.71 0.4 372.66-0.4L372.66-0.4Q378.31-2.7 381.36-7.35L381.36-7.35Q381.66-7.75 381.91-7.5L381.91-7.5Q382.11-7.4 382.11-7.25 382.11-7.1 381.96-6.9L381.96-6.9Q380.46-4.4 378.16-2.45L378.16-2.45Q373.71 1.35 369.51 1.35L369.51 1.35Q365.91 1.35 364.46-0.8L364.46-0.8Q363.91-1.65 363.91-2.85 363.91-4.05 364.56-5.7L364.56-5.7Q365.81-8.55 369.91-11.55 374.01-14.55 376.41-14.55ZM388.15-13.95L388.8-14Q392.65-14.35 393.48-14.35 394.3-14.35 394.3-14.1L394.3-14.1Q394.3-13.8 393.13-13.48 391.95-13.15 387.4-12.65L387.4-12.65Q387.15-12.2 386.8-11.6L386.8-11.6Q386.05-10.4 386-10.15L386-10.15Q383.15-4.45 383-2.9L383-2.9Q382.95-2.45 382.95-1.75 382.95-1.05 383.35-0.6L383.35-0.6Q384.05 0.2 385.35-0.5 386.65-1.2 388.98-3.3 391.3-5.4 392.75-7.4L392.75-7.4Q392.95-7.65 393.25-7.5L393.25-7.5Q394-7.15 390.65-3.55L390.65-3.55Q387.45-0.1 385.3 0.7L385.3 0.7Q384.05 1.15 383.2 1.15L383.2 1.15Q381.2 1.15 380.55-0.75L380.55-0.75Q380.45-1.1 380.45-1.6L380.45-1.6Q380.45-3.35 382.05-6.9L382.05-6.9Q381.8-6.35 380.1-4.4L380.1-4.4Q379.65-3.9 379.4-4.4L379.4-4.4Q379.35-4.5 379.35-4.67 379.35-4.85 379.55-5.1L379.55-5.1Q382-8.15 383.4-10.25L383.4-10.25Q383.4-10.3 384.5-12.35L384.5-12.35Q384-12.25 383.48-12.25 382.95-12.25 382.7-12.58 382.45-12.9 382.65-13.35L382.65-13.35Q383-14.15 385.3-14.25L385.3-14.25Q385.35-14.35 385.5-14.35L385.5-14.35 388-19Q388.2-19.4 388.45-19.83 388.7-20.25 388.83-20.48 388.95-20.7 389.1-20.95 389.25-21.2 389.35-21.3 389.45-21.4 389.55-21.5L389.55-21.5Q389.75-21.8 390.73-21.8 391.7-21.8 392.05-21.25L392.05-21.25Q392.2-21.05 392.2-20.58 392.2-20.1 391.85-19.53 391.5-18.95 391.1-18.7 390.7-18.45 390.55-18.15L390.55-18.15 388.15-13.95Z" opacity="1" transform="matrix(1,0,0,1,0,0)" fill="#ffffff" class="wordmark-text-0" data-fill-palette-color="primary" id="text-0"></path></svg></g></svg></g><g transform="matrix(1,0,0,1,98.87999999999998,60.244766270638294)"><svg viewBox="0 0 197.75999999999996 18.408768934177907" height="18.408768934177907" width="197.75999999999996"><g transform="matrix(1,0,0,1,8,0)"><svg width="181.75999999999996" viewBox="2.200000047683716 -36.380001068115234 363.05999755859375 36.78000259399414" height="18.408768934177907" data-palette-color="#ff908b"><path d="M21.05-22.4L20.43-21.55Q20.3-21.43 20.19-21.34 20.08-21.25 19.88-21.25L19.88-21.25Q19.63-21.25 19.19-21.59 18.75-21.93 18.03-22.33 17.3-22.73 16.21-23.06 15.13-23.4 13.58-23.4L13.58-23.4Q11.43-23.4 9.76-22.64 8.1-21.88 6.96-20.45 5.83-19.03 5.23-17 4.63-14.98 4.63-12.45L4.63-12.45Q4.63-9.83 5.24-7.8 5.85-5.78 6.98-4.39 8.1-3 9.7-2.27 11.3-1.55 13.25-1.55L13.25-1.55Q15.05-1.55 16.26-1.98 17.48-2.4 18.26-2.9 19.05-3.4 19.51-3.83 19.98-4.25 20.25-4.25L20.25-4.25Q20.58-4.25 20.75-4L20.75-4 21.4-3.2Q20.83-2.45 19.95-1.8 19.07-1.15 17.98-0.68 16.88-0.2 15.59 0.06 14.3 0.33 12.9 0.33L12.9 0.33Q10.53 0.33 8.56-0.54 6.6-1.4 5.19-3.04 3.78-4.67 2.99-7.05 2.2-9.43 2.2-12.45L2.2-12.45Q2.2-15.3 2.95-17.65 3.7-20 5.14-21.7 6.58-23.4 8.66-24.34 10.75-25.28 13.45-25.28L13.45-25.28Q15.88-25.28 17.76-24.5 19.65-23.73 21.05-22.4L21.05-22.4ZM36.27-25.28L36.27-25.28Q38.95-25.28 41.06-24.36 43.17-23.45 44.62-21.78 46.07-20.1 46.84-17.74 47.6-15.38 47.6-12.45L47.6-12.45Q47.6-9.53 46.84-7.18 46.07-4.83 44.62-3.15 43.17-1.48 41.06-0.58 38.95 0.33 36.27 0.33L36.27 0.33Q33.6 0.33 31.48-0.58 29.37-1.48 27.91-3.15 26.45-4.83 25.68-7.18 24.92-9.53 24.92-12.45L24.92-12.45Q24.92-15.38 25.68-17.74 26.45-20.1 27.91-21.78 29.37-23.45 31.48-24.36 33.6-25.28 36.27-25.28ZM36.27-1.55L36.27-1.55Q38.5-1.55 40.16-2.31 41.82-3.08 42.94-4.5 44.05-5.93 44.6-7.94 45.15-9.95 45.15-12.45L45.15-12.45Q45.15-14.93 44.6-16.95 44.05-18.98 42.94-20.41 41.82-21.85 40.16-22.63 38.5-23.4 36.27-23.4L36.27-23.4Q34.05-23.4 32.38-22.63 30.72-21.85 29.61-20.41 28.5-18.98 27.93-16.95 27.37-14.93 27.37-12.45L27.37-12.45Q27.37-9.95 27.93-7.94 28.5-5.93 29.61-4.5 30.72-3.08 32.38-2.31 34.05-1.55 36.27-1.55ZM70.45-24.88L70.45-23.88Q70.45-23.35 70.09-22.93L70.09-22.93 54.52-1.88 69.82-1.88 69.82 0 51.65 0 51.65-0.95Q51.65-1.38 52.02-1.88L52.02-1.88 67.65-23 52.47-23 52.47-24.88 70.45-24.88ZM77.14-24.88L79.52-24.88 79.52 0 77.14 0 77.14-24.88ZM80.57-33.45L80.57-33.45Q80.57-33 80.38-32.61 80.19-32.23 79.89-31.93 79.59-31.63 79.19-31.45 78.79-31.28 78.34-31.28L78.34-31.28Q77.89-31.28 77.49-31.45 77.09-31.63 76.79-31.93 76.49-32.23 76.32-32.61 76.14-33 76.14-33.45L76.14-33.45Q76.14-33.9 76.32-34.31 76.49-34.73 76.79-35.02 77.09-35.33 77.49-35.5 77.89-35.68 78.34-35.68L78.34-35.68Q78.79-35.68 79.19-35.5 79.59-35.33 79.89-35.02 80.19-34.73 80.38-34.31 80.57-33.9 80.57-33.45ZM90.69 0L88.32 0 88.32-24.88 89.62-24.88Q90.27-24.88 90.37-24.25L90.37-24.25 90.59-20.5Q92.29-22.65 94.55-23.96 96.82-25.28 99.59-25.28L99.59-25.28Q101.64-25.28 103.2-24.63 104.77-23.98 105.79-22.75 106.82-21.53 107.34-19.8 107.87-18.07 107.87-15.9L107.87-15.9 107.87 0 105.49 0 105.49-15.9Q105.49-19.4 103.89-21.39 102.29-23.38 98.99-23.38L98.99-23.38Q96.54-23.38 94.44-22.11 92.34-20.85 90.69-18.65L90.69-18.65 90.69 0ZM117.74 0L115.36 0 115.36-36.38 117.74-36.38 117.74-20.63Q119.46-22.75 121.68-24.01 123.89-25.28 126.64-25.28L126.64-25.28Q128.69-25.28 130.25-24.63 131.81-23.98 132.84-22.75 133.86-21.53 134.39-19.8 134.91-18.07 134.91-15.9L134.91-15.9 134.91 0 132.54 0 132.54-15.9Q132.54-19.4 130.94-21.39 129.34-23.38 126.04-23.38L126.04-23.38Q123.59-23.38 121.49-22.11 119.39-20.85 117.74-18.65L117.74-18.65 117.74 0ZM159.24 0L158.29 0Q157.54 0 157.36-0.7L157.36-0.7 157.01-3.88Q155.99-2.88 154.97-2.08 153.96-1.28 152.86-0.73 151.76-0.18 150.49 0.11 149.21 0.4 147.69 0.4L147.69 0.4Q146.41 0.4 145.21 0.03 144.01-0.35 143.09-1.13 142.16-1.9 141.6-3.11 141.04-4.33 141.04-6.03L141.04-6.03Q141.04-7.6 141.94-8.95 142.84-10.3 144.75-11.3 146.66-12.3 149.67-12.9 152.69-13.5 156.91-13.6L156.91-13.6 156.91-16.2Q156.91-19.65 155.42-21.51 153.94-23.38 151.01-23.38L151.01-23.38Q149.21-23.38 147.95-22.88 146.69-22.38 145.81-21.78 144.94-21.18 144.39-20.68 143.84-20.18 143.46-20.18L143.46-20.18Q142.96-20.18 142.71-20.63L142.71-20.63 142.29-21.35Q144.24-23.3 146.39-24.3 148.54-25.3 151.26-25.3L151.26-25.3Q153.26-25.3 154.76-24.66 156.26-24.03 157.25-22.84 158.24-21.65 158.74-19.96 159.24-18.28 159.24-16.2L159.24-16.2 159.24 0ZM148.29-1.33L148.29-1.33Q149.74-1.33 150.95-1.64 152.16-1.95 153.2-2.51 154.24-3.08 155.14-3.85 156.04-4.63 156.91-5.53L156.91-5.53 156.91-12Q153.36-11.9 150.8-11.46 148.24-11.03 146.57-10.28 144.91-9.53 144.12-8.49 143.34-7.45 143.34-6.13L143.34-6.13Q143.34-4.88 143.75-3.96 144.16-3.05 144.84-2.46 145.51-1.88 146.41-1.6 147.31-1.33 148.29-1.33ZM185.76-25.28L185.76-25.28Q187.86-25.28 189.64-24.55 191.43-23.83 192.74-22.44 194.06-21.05 194.79-19.03 195.53-17 195.53-14.38L195.53-14.38Q195.53-13.83 195.37-13.63 195.21-13.43 194.86-13.43L194.86-13.43 176.88-13.43 176.88-12.95Q176.88-10.15 177.53-8.03 178.18-5.9 179.38-4.46 180.58-3.03 182.28-2.3 183.98-1.58 186.08-1.58L186.08-1.58Q187.96-1.58 189.33-1.99 190.71-2.4 191.64-2.91 192.58-3.43 193.13-3.84 193.68-4.25 193.93-4.25L193.93-4.25Q194.26-4.25 194.43-4L194.43-4 195.08-3.2Q194.48-2.45 193.49-1.8 192.51-1.15 191.29-0.69 190.08-0.23 188.69 0.05 187.31 0.33 185.91 0.33L185.91 0.33Q183.36 0.33 181.26-0.56 179.16-1.45 177.66-3.15 176.16-4.85 175.34-7.31 174.53-9.78 174.53-12.95L174.53-12.95Q174.53-15.63 175.29-17.89 176.06-20.15 177.49-21.79 178.93-23.43 181.02-24.35 183.11-25.28 185.76-25.28ZM185.78-23.5L185.78-23.5Q183.86-23.5 182.33-22.9 180.81-22.3 179.69-21.18 178.58-20.05 177.89-18.48 177.21-16.9 176.98-14.95L176.98-14.95 193.38-14.95Q193.38-16.95 192.83-18.54 192.28-20.13 191.28-21.23 190.28-22.33 188.88-22.91 187.48-23.5 185.78-23.5ZM228.58-22.4L227.95-21.55Q227.83-21.43 227.71-21.34 227.6-21.25 227.4-21.25L227.4-21.25Q227.15-21.25 226.71-21.59 226.28-21.93 225.55-22.33 224.83-22.73 223.74-23.06 222.65-23.4 221.1-23.4L221.1-23.4Q218.95-23.4 217.29-22.64 215.63-21.88 214.49-20.45 213.35-19.03 212.75-17 212.15-14.98 212.15-12.45L212.15-12.45Q212.15-9.83 212.76-7.8 213.38-5.78 214.5-4.39 215.63-3 217.23-2.27 218.83-1.55 220.78-1.55L220.78-1.55Q222.58-1.55 223.79-1.98 225-2.4 225.79-2.9 226.58-3.4 227.04-3.83 227.5-4.25 227.78-4.25L227.78-4.25Q228.1-4.25 228.28-4L228.28-4 228.93-3.2Q228.35-2.45 227.48-1.8 226.6-1.15 225.5-0.68 224.4-0.2 223.11 0.06 221.83 0.33 220.43 0.33L220.43 0.33Q218.05 0.33 216.09-0.54 214.13-1.4 212.71-3.04 211.3-4.67 210.51-7.05 209.73-9.43 209.73-12.45L209.73-12.45Q209.73-15.3 210.48-17.65 211.23-20 212.66-21.7 214.1-23.4 216.19-24.34 218.28-25.28 220.98-25.28L220.98-25.28Q223.4-25.28 225.29-24.5 227.18-23.73 228.58-22.4L228.58-22.4ZM251.15 0L250.2 0Q249.45 0 249.27-0.7L249.27-0.7 248.92-3.88Q247.9-2.88 246.89-2.08 245.87-1.28 244.77-0.73 243.67-0.18 242.4 0.11 241.12 0.4 239.6 0.4L239.6 0.4Q238.32 0.4 237.12 0.03 235.92-0.35 235-1.13 234.07-1.9 233.51-3.11 232.95-4.33 232.95-6.03L232.95-6.03Q232.95-7.6 233.85-8.95 234.75-10.3 236.66-11.3 238.57-12.3 241.59-12.9 244.6-13.5 248.82-13.6L248.82-13.6 248.82-16.2Q248.82-19.65 247.34-21.51 245.85-23.38 242.92-23.38L242.92-23.38Q241.12-23.38 239.86-22.88 238.6-22.38 237.72-21.78 236.85-21.18 236.3-20.68 235.75-20.18 235.37-20.18L235.37-20.18Q234.87-20.18 234.62-20.63L234.62-20.63 234.2-21.35Q236.15-23.3 238.3-24.3 240.45-25.3 243.17-25.3L243.17-25.3Q245.17-25.3 246.67-24.66 248.17-24.03 249.16-22.84 250.15-21.65 250.65-19.96 251.15-18.28 251.15-16.2L251.15-16.2 251.15 0ZM240.2-1.33L240.2-1.33Q241.65-1.33 242.86-1.64 244.07-1.95 245.11-2.51 246.15-3.08 247.05-3.85 247.95-4.63 248.82-5.53L248.82-5.53 248.82-12Q245.27-11.9 242.71-11.46 240.15-11.03 238.49-10.28 236.82-9.53 236.04-8.49 235.25-7.45 235.25-6.13L235.25-6.13Q235.25-4.88 235.66-3.96 236.07-3.05 236.75-2.46 237.42-1.88 238.32-1.6 239.22-1.33 240.2-1.33ZM261.02 0L258.65 0 258.65-24.88 259.9-24.88Q260.32-24.88 260.51-24.7 260.7-24.53 260.72-24.1L260.72-24.1 260.92-18.85Q262.12-21.88 264.12-23.59 266.12-25.3 269.05-25.3L269.05-25.3Q270.17-25.3 271.12-25.06 272.07-24.83 272.92-24.38L272.92-24.38 272.6-22.73Q272.52-22.33 272.1-22.33L272.1-22.33Q271.95-22.33 271.67-22.43 271.4-22.53 270.98-22.65 270.57-22.78 269.97-22.88 269.37-22.98 268.6-22.98L268.6-22.98Q265.77-22.98 263.96-21.23 262.15-19.48 261.02-16.18L261.02-16.18 261.02 0ZM279.19-24.88L281.57-24.88 281.57 0 279.19 0 279.19-24.88ZM282.62-33.45L282.62-33.45Q282.62-33 282.43-32.61 282.24-32.23 281.94-31.93 281.64-31.63 281.24-31.45 280.84-31.28 280.39-31.28L280.39-31.28Q279.94-31.28 279.54-31.45 279.14-31.63 278.84-31.93 278.54-32.23 278.37-32.61 278.19-33 278.19-33.45L278.19-33.45Q278.19-33.9 278.37-34.31 278.54-34.73 278.84-35.02 279.14-35.33 279.54-35.5 279.94-35.68 280.39-35.68L280.39-35.68Q280.84-35.68 281.24-35.5 281.64-35.33 281.94-35.02 282.24-34.73 282.43-34.31 282.62-33.9 282.62-33.45ZM292.74 0L290.37 0 290.37-24.88 291.67-24.88Q292.32-24.88 292.42-24.25L292.42-24.25 292.64-20.5Q294.34-22.65 296.6-23.96 298.87-25.28 301.64-25.28L301.64-25.28Q303.69-25.28 305.25-24.63 306.82-23.98 307.84-22.75 308.87-21.53 309.39-19.8 309.92-18.07 309.92-15.9L309.92-15.9 309.92 0 307.54 0 307.54-15.9Q307.54-19.4 305.94-21.39 304.34-23.38 301.04-23.38L301.04-23.38Q298.59-23.38 296.49-22.11 294.39-20.85 292.74-18.65L292.74-18.65 292.74 0ZM319.79 0L317.41 0 317.41-36.38 319.79-36.38 319.79-20.63Q321.51-22.75 323.73-24.01 325.94-25.28 328.69-25.28L328.69-25.28Q330.74-25.28 332.3-24.63 333.86-23.98 334.89-22.75 335.91-21.53 336.44-19.8 336.96-18.07 336.96-15.9L336.96-15.9 336.96 0 334.59 0 334.59-15.9Q334.59-19.4 332.99-21.39 331.39-23.38 328.09-23.38L328.09-23.38Q325.64-23.38 323.54-22.11 321.44-20.85 319.79-18.65L319.79-18.65 319.79 0ZM353.94-25.28L353.94-25.28Q356.61-25.28 358.72-24.36 360.84-23.45 362.29-21.78 363.74-20.1 364.5-17.74 365.26-15.38 365.26-12.45L365.26-12.45Q365.26-9.53 364.5-7.18 363.74-4.83 362.29-3.15 360.84-1.48 358.72-0.58 356.61 0.33 353.94 0.33L353.94 0.33Q351.26 0.33 349.15-0.58 347.04-1.48 345.57-3.15 344.11-4.83 343.35-7.18 342.59-9.53 342.59-12.45L342.59-12.45Q342.59-15.38 343.35-17.74 344.11-20.1 345.57-21.78 347.04-23.45 349.15-24.36 351.26-25.28 353.94-25.28ZM353.94-1.55L353.94-1.55Q356.16-1.55 357.82-2.31 359.49-3.08 360.6-4.5 361.71-5.93 362.26-7.94 362.81-9.95 362.81-12.45L362.81-12.45Q362.81-14.93 362.26-16.95 361.71-18.98 360.6-20.41 359.49-21.85 357.82-22.63 356.16-23.4 353.94-23.4L353.94-23.4Q351.71-23.4 350.05-22.63 348.39-21.85 347.27-20.41 346.16-18.98 345.6-16.95 345.04-14.93 345.04-12.45L345.04-12.45Q345.04-9.95 345.6-7.94 346.16-5.93 347.27-4.5 348.39-3.08 350.05-2.31 351.71-1.55 353.94-1.55Z" opacity="1" transform="matrix(1,0,0,1,0,0)" fill="#ffffff" class="slogan-text-1" data-fill-palette-color="secondary" id="text-1"></path></svg></g></svg></g></svg></g></svg></g><g transform="matrix(1,0,0,1,418.5320857327659,0)"><svg viewBox="0 0 143.20151486661948 143.20151486661948" height="143.20151486661948" width="143.20151486661948"><g><svg></svg></g><g id="icon-0"><svg viewBox="0 0 143.20151486661948 143.20151486661948" height="143.20151486661948" width="143.20151486661948"><g><path d="M0 71.601c0-39.544 32.057-71.601 71.601-71.601 39.544 0 71.601 32.057 71.601 71.601 0 39.544-32.057 71.601-71.601 71.601-39.544 0-71.601-32.057-71.601-71.601zM71.601 138.806c37.117 0 67.205-30.089 67.205-67.205 0-37.117-30.089-67.205-67.205-67.206-37.117 0-67.205 30.089-67.206 67.206 0 37.117 30.089 67.205 67.206 67.205z" data-fill-palette-color="tertiary" fill="#ffffff" stroke="transparent"></path></g><g transform="matrix(1,0,0,1,37.34020982446239,30.56079387861174)"><svg viewBox="0 0 68.5210952176947 82.079927109396" height="82.079927109396" width="68.5210952176947"><g><svg xmlns="http://www.w3.org/2000/svg" xmlns:xlink="http://www.w3.org/1999/xlink" version="1.1" x="0" y="0" viewBox="14.703211784362793 10.099565505981445 66.38959503173828 79.52664947509766" enable-background="new 0 0 100 100" xml:space="preserve" height="82.079927109396" width="68.5210952176947" class="icon-s-0" data-fill-palette-color="accent" id="s-0"><path d="M78.818 16.776c-1.501-4.175-5.311-6.641-9.713-6.676-5.136-0.041-8.937 2.834-11.508 7.137-4.064 6.807-6.26 15.722-4.545 23.956C48.39 35.271 45.57 29.766 39.021 25.73c-5.712-3.52-16.655-8.084-22.064-1.742-3.833 4.496-1.965 11.581-0.325 16.546 2.183 6.612 5.546 12.718 9.523 18.409 8.074 11.556 18.859 21.265 30.249 29.464 0.521 0.375 1.175 0.587 1.845 0.686 1.249 0.59 3.656 0.813 4.188 0.024 7.159-10.618 11.478-22.959 15.002-35.188C80.759 42.403 82.99 28.387 78.818 16.776zM71.156 57.308c-3.154 10.071-6.777 20.074-12.436 29.02-8.823-6.564-17.029-14.018-23.975-22.556-3.777-4.643-7.072-9.668-9.767-15.011-2.701-5.351-5.175-11.534-5.109-17.6 0.041-3.782 2.139-8.597 6.585-8.168 3.452 0.333 6.97 2.464 9.813 4.318 9.48 6.178 12.305 16.003 18.941 24.899 0.7 0.938 5.546 1.52 4.968 0.033-3.604-9.259-2.245-20.525 0.683-30.208 0.705-2.326 1.855-4.419 3.366-6.312 1.304-1.638 4.377-4.644 6.677-3.203 3.575 2.237 4.097 8.108 4.542 11.823C76.785 35.452 74.466 46.744 71.156 57.308z" fill="#ffffff" data-fill-palette-color="accent"></path></svg></g></svg></g></svg></g></svg></g></svg></g><defs></defs></svg><rect width="395.52" height="100.82904618774786" fill="none" stroke="none" visibility="hidden"></rect></g></svg></g></svg>